<svg xmlns="http://www.w3.org/2000/svg" version="1.1" xmlns:xlink="http://www.w3.org/1999/xlink"
    xmlns:svgjs="http://svgjs.dev/svgjs" width="1500" height="1500" viewBox="0 0 1500 1500">
    <rect width="1500" height="1500" fill="#33323d"></rect>
    <g
        transform="matrix(0.33875338753387535,0,0,0.33875338753387535,494.39287015495694,248.38709677419354)">
        <svg viewBox="0 0 126 248" data-background-color="#ffffff"
            preserveAspectRatio="xMidYMid meet" height="2952" width="1500"
            xmlns="http://www.w3.org/2000/svg" xmlns:xlink="http://www.w3.org/1999/xlink">
            <g id="tight-bounds" transform="matrix(1,0,0,1,0.3823887734156415,0.4000000000000057)">
                <svg viewBox="0 0 125.23522245316876 247.2" height="247.2"
                    width="125.23522245316876">
                    <g>
                        <svg viewBox="0 0 272.42057788428616 537.7270510153639" height="247.2"
                            width="125.23522245316876">
                            <g>
                                <rect width="272.42057788428616" height="22.292751110399998" x="0"
                                    y="209.87631270496405" fill="#ffffff" opacity="1"
                                    stroke-width="0" stroke="transparent" fill-opacity="1"
                                    class="rect-yte-0" data-fill-palette-color="secondary" rx="1%"
                                    id="yte-0" data-palette-color="#8eaec4"></rect>
                            </g>
                            <g transform="matrix(1,0,0,1,0.6776631290653654,290.527051015364)">
                                <svg viewBox="0 0 271.06525162615543 247.2" height="247.2"
                                    width="271.06525162615543">
                                    <g id="textblocktransform">
                                        <svg viewBox="0 0 271.06525162615543 247.2" height="247.2"
                                            width="271.06525162615543" id="textblock">
                                            <g>
                                                <svg viewBox="0 0 271.06525162615543 247.2"
                                                    height="247.2" width="271.06525162615543">
                                                    <g transform="matrix(1,0,0,1,0,0)">
                                                        <svg width="271.06525162615543"
                                                            viewBox="-7.4 -48.9 78.2 71.31"
                                                            height="247.2"
                                                            data-palette-color="#203a4c">
                                                            <path
                                                                d="M-5.15-14.84L-5.15-14.84-5.05-14.4Q-5.05-13.84-5.46-13.42-5.86-12.99-6.35-12.99L-6.35-12.99Q-7.4-12.99-7.4-14.45L-7.4-14.45Q-7.4-17.41-1.49-20.95L-1.49-20.95Q0.54-22.14 1.79-22.61 3.05-23.07 4.38-23.66 5.71-24.24 6.65-24.55 7.59-24.85 7.86-24.95L7.86-24.95Q8.91-29.35 9.47-34.08 10.03-38.82 10.34-41.61 10.64-44.41 11.01-47.19L11.01-47.19Q11.16-48.39 12.45-48.39L12.45-48.39Q12.99-48.39 13.17-48.19 13.35-48 13.31-47.56L13.31-47.56Q12.72-40.55 10.3-25.61L10.3-25.61Q17.82-27.54 29.35-28.05L29.35-28.05Q30.98-40.45 31.32-41.85L31.32-41.85Q32.4-46.19 32.5-47.71L32.5-47.71Q32.64-48.19 33.07-48.55 33.5-48.9 33.96-48.9L33.96-48.9Q34.57-48.9 34.79-48.05L34.79-48.05Q34.72-46.7 34.33-45.02L34.33-45.02 33.72-42.38Q33.28-40.48 32.67-35.85 32.06-31.23 31.64-28.1L31.64-28.1 43.04-28.44Q43.9-28.22 43.9-27.59L43.9-27.59Q43.9-27.15 43.54-26.72 43.19-26.29 42.7-26.15L42.7-26.15Q39.87-26.03 37.04-25.98 34.2-25.93 31.3-25.85L31.3-25.85Q30.86-22.29 30-17.99 29.15-13.7 28.38-9.46 27.61-5.22 27.44-0.85L27.44-0.85Q27.37-0.24 26.92 0.16 26.46 0.56 26 0.56L26 0.56Q25.24 0.56 25.15-0.49L25.15-0.49Q25.32-5 26.1-9.29 26.88-13.57 27.39-16.15 27.91-18.73 28.34-21.34L28.34-21.34 29.05-25.76Q17.46-25.29 9.69-23.19L9.69-23.19Q8.18-17.07 6.46-11.08 4.74-5.1 3.3 0.71L3.3 0.71Q2.78 1.71 1.9 1.71L1.9 1.71Q1.15 1.71 1.05 0.71L1.05 0.71Q2.42-4.91 4.08-10.73 5.74-16.55 7.25-22.51L7.25-22.51Q0.85-20.39-2.91-17.41L-2.91-17.41Q-3.1-17.26-3.47-16.99L-3.47-16.99Q-5.15-15.75-5.15-14.94L-5.15-14.94Q-5.15-14.89-5.15-14.84ZM59.59-2.86L59.59-2.86Q55.2 0.76 48.09 0.76L48.09 0.76Q44.38 0.76 41.65-1.64L41.65-1.64Q38.08-4.74 37.11-10.62L37.11-10.62Q36.84-12.33 36.84-13.94L36.84-13.94Q36.84-19.63 39.82-28.47L39.82-28.47Q41.87-34.55 45.04-39.59 48.22-44.63 52.29-46.75L52.29-46.75Q54.42-47.85 56.64-47.85L56.64-47.85Q60.86-47.85 63.35-45.31 65.84-42.77 66.6-38.5L66.6-38.5Q66.53-37.96 66.07-37.54 65.62-37.11 65.1-37.11 64.57-37.11 64.3-37.79L64.3-37.79Q63.72-39.43 63.13-40.82L63.13-40.82Q61.23-45.51 56.64-45.51L56.64-45.51Q52.95-45.51 49.46-41.99L49.46-41.99Q44.97-37.4 42.05-28.86 39.13-20.31 39.13-15.01 39.13-9.72 40.87-6.18L40.87-6.18Q43.16-1.49 48.44-1.49L48.44-1.49Q57.1-1.49 60.23-6.3L60.23-6.3Q61.35-8.03 61.69-10.21L61.69-10.21Q61.62-10.47 61.61-10.74 61.59-11.01 61.01-11.74 60.42-12.48 58.6-14.27 56.78-16.06 55.25-17.14L55.25-17.14Q52.02-16.48 47.95-15.94L47.95-15.94Q46.95-16.04 46.95-16.85L46.95-16.85Q46.95-17.48 47.53-17.99L47.53-17.99Q50.85-20.36 53.2-20.36L53.2-20.36Q54.61-20.36 56-19.6L56-19.6Q62.01-20.92 69.6-23.34L69.6-23.34Q70.8-23.34 70.8-22.51L70.8-22.51Q70.8-22.27 70.6-21.75L70.6-21.75Q64.21-11.28 60.89 1.2L60.89 1.2Q59.23 7.47 58.24 12.78 57.25 18.09 56.64 21L56.64 21Q56.56 21.61 56.1 22.01 55.64 22.41 55.25 22.41L55.25 22.41Q54.44 22.41 54.34 21.34L54.34 21.34Q56 10.79 57.16 6.16 58.32 1.54 59.59-2.86ZM58.4-17.8L58.4-17.8Q60.64-15.65 61-15.28 61.35-14.92 62.01-14.31 62.67-13.7 63.18-12.99L63.18-12.99Q64.11-14.92 65.17-16.72 66.23-18.53 67.28-20.36L67.28-20.36Q62.86-18.85 58.4-17.8Z"
                                                                opacity="1"
                                                                transform="matrix(1,0,0,1,0,0)"
                                                                fill="#ffffff"
                                                                class="wordmark-text-0"
                                                                data-fill-palette-color="primary"
                                                                id="text-0"></path>
                                                        </svg>
                                                    </g>
                                                </svg>
                                            </g>
                                        </svg>
                                    </g>
                                </svg>
                            </g>
                            <g transform="matrix(1,0,0,1,52.45112618966105,0)">
                                <svg viewBox="0 0 167.51832550496405 151.51832550496405"
                                    height="151.51832550496405" width="167.51832550496405">
                                    <g>
                                        <svg xmlns="http://www.w3.org/2000/svg"
                                            xmlns:xlink="http://www.w3.org/1999/xlink" version="1.1"
                                            x="8" y="0" viewBox="40.5 39.5 425 425"
                                            enable-background="new 0 0 500 500" xml:space="preserve"
                                            height="151.51832550496405" width="151.51832550496405"
                                            class="icon-icon-0" data-fill-palette-color="accent"
                                            id="icon-0"><g fill="#33323d" data-fill-palette-color="accent"><path fill="#ffffff" d="M465.5 464.5H40.5V39.5H465.5zM65.5 439.5H440.5V64.5H65.5z" data-fill-palette-color="accent"></path></g><g fill="#33323d" data-fill-palette-color="accent"><rect x="53" y="352" fill="#ffffff" width="400" height="25" data-fill-palette-color="accent"></rect></g><g fill="#33323d" data-fill-palette-color="accent"><rect x="103" y="89.5" fill="#ffffff" width="50" height="25" data-fill-palette-color="accent"></rect></g><g fill="#33323d" data-fill-palette-color="accent"><rect x="203" y="89.5" fill="#ffffff" width="200" height="25" data-fill-palette-color="accent"></rect></g><g fill="#33323d" data-fill-palette-color="accent"><rect x="103" y="402.548" fill="#ffffff" width="75" height="46.327" data-fill-palette-color="accent"></rect></g><g fill="#33323d" data-fill-palette-color="accent"><rect x="215.5" y="402.548" fill="#ffffff" width="75" height="46.327" data-fill-palette-color="accent"></rect></g><g fill="#33323d" data-fill-palette-color="accent"><rect x="328" y="402.548" fill="#ffffff" width="75" height="46.327" data-fill-palette-color="accent"></rect></g><circle fill="#ffffff" cx="253" cy="208.193" r="41" data-fill-palette-color="accent"></circle><path fill="#ffffff" d="M253 264.42S180.914 268.457 180.914 297.291V354.96H325.086V297.291S306.632 264.42 253 264.42" data-fill-palette-color="accent"></path></svg>
                                    </g>
                                </svg>
                            </g>
                            <g></g>
                        </svg>
                    </g>
                    <defs></defs>
                </svg>
                <rect width="125.23522245316876" height="247.2" fill="none" stroke="none"
                    visibility="hidden"></rect>
            </g>
        </svg>
    </g>
</svg>